ISO-10303-21;
HEADER;
/* Generated by software containing ST-Developer
 * from STEP Tools, Inc. (www.steptools.com) 
 */
/* OPTION: using custom renumber hook */

FILE_DESCRIPTION(
/* description */ ('STEP AP242 Edition 2',
'CAx-IF Rec.Pracs.---Representation and Presentation of Product Manufa
cturing Information (PMI)---4.0---2014-10-13',
'CAx-IF Rec.Pracs.---3D Tessellated Geometry---0.4---2014-09-14','2;1',
'CAx-IF Rec.Pracs.---User Defined Attributes---1.5---2016-08-15'),
/* implementation_level */ '2;1');

FILE_NAME(
/* name */ 'Part Studio 5_noz',
/* time_stamp */ '2026-04-21T16:50:43Z',
/* author */ (''),
/* organization */ (''),
/* preprocessor_version */ 'ST-DEVELOPER v20',
/* originating_system */ 'ONSHAPE BY PTC INC, 1.213',
/* authorisation */ '  ');

FILE_SCHEMA (('AP242_MANAGED_MODEL_BASED_3D_ENGINEERING_MIM_LF { 1 0 10303 442 3 1 4 }'));
ENDSEC;

DATA;
#10=SHAPE_REPRESENTATION_RELATIONSHIP('','',#481,#11);
#11=ADVANCED_BREP_SHAPE_REPRESENTATION('',(#479),#761);
#12=CYLINDRICAL_SURFACE('',#487,0.0016);
#13=CYLINDRICAL_SURFACE('',#489,0.0016);
#14=CYLINDRICAL_SURFACE('',#510,0.0019);
#15=CYLINDRICAL_SURFACE('',#511,0.0019);
#16=LINE('',#637,#68);
#17=LINE('',#640,#69);
#18=LINE('',#642,#70);
#19=LINE('',#644,#71);
#20=LINE('',#646,#72);
#21=LINE('',#649,#73);
#22=LINE('',#650,#74);
#23=LINE('',#652,#75);
#24=LINE('',#654,#76);
#25=LINE('',#656,#77);
#26=LINE('',#658,#78);
#27=LINE('',#660,#79);
#28=LINE('',#670,#80);
#29=LINE('',#672,#81);
#30=LINE('',#674,#82);
#31=LINE('',#676,#83);
#32=LINE('',#678,#84);
#33=LINE('',#680,#85);
#34=LINE('',#682,#86);
#35=LINE('',#684,#87);
#36=LINE('',#686,#88);
#37=LINE('',#688,#89);
#38=LINE('',#690,#90);
#39=LINE('',#692,#91);
#40=LINE('',#694,#92);
#41=LINE('',#700,#93);
#42=LINE('',#703,#94);
#43=LINE('',#705,#95);
#44=LINE('',#707,#96);
#45=LINE('',#709,#97);
#46=LINE('',#712,#98);
#47=LINE('',#714,#99);
#48=LINE('',#716,#100);
#49=LINE('',#718,#101);
#50=LINE('',#720,#102);
#51=LINE('',#722,#103);
#52=LINE('',#724,#104);
#53=LINE('',#726,#105);
#54=LINE('',#728,#106);
#55=LINE('',#730,#107);
#56=LINE('',#732,#108);
#57=LINE('',#734,#109);
#58=LINE('',#740,#110);
#59=LINE('',#741,#111);
#60=LINE('',#743,#112);
#61=LINE('',#745,#113);
#62=LINE('',#747,#114);
#63=LINE('',#749,#115);
#64=LINE('',#750,#116);
#65=LINE('',#751,#117);
#66=LINE('',#753,#118);
#67=LINE('',#754,#119);
#68=VECTOR('',#521,1.);
#69=VECTOR('',#522,1.);
#70=VECTOR('',#523,1.);
#71=VECTOR('',#524,1.);
#72=VECTOR('',#527,1.);
#73=VECTOR('',#528,1.);
#74=VECTOR('',#529,1.);
#75=VECTOR('',#530,1.);
#76=VECTOR('',#531,1.);
#77=VECTOR('',#534,1.);
#78=VECTOR('',#535,1.);
#79=VECTOR('',#536,1.);
#80=VECTOR('',#549,1.);
#81=VECTOR('',#550,1.);
#82=VECTOR('',#551,1.);
#83=VECTOR('',#552,1.);
#84=VECTOR('',#555,1.);
#85=VECTOR('',#556,1.);
#86=VECTOR('',#559,1.);
#87=VECTOR('',#562,1.);
#88=VECTOR('',#563,1.);
#89=VECTOR('',#564,1.);
#90=VECTOR('',#567,1.);
#91=VECTOR('',#568,1.);
#92=VECTOR('',#569,1.);
#93=VECTOR('',#576,1.);
#94=VECTOR('',#577,1.);
#95=VECTOR('',#578,1.);
#96=VECTOR('',#579,1.);
#97=VECTOR('',#582,1.);
#98=VECTOR('',#583,1.);
#99=VECTOR('',#584,1.);
#100=VECTOR('',#585,1.);
#101=VECTOR('',#588,1.);
#102=VECTOR('',#589,1.);
#103=VECTOR('',#590,1.);
#104=VECTOR('',#593,1.);
#105=VECTOR('',#594,1.);
#106=VECTOR('',#595,1.);
#107=VECTOR('',#598,1.);
#108=VECTOR('',#599,1.);
#109=VECTOR('',#600,1.);
#110=VECTOR('',#607,1.);
#111=VECTOR('',#608,1.);
#112=VECTOR('',#611,1.);
#113=VECTOR('',#612,1.);
#114=VECTOR('',#613,1.);
#115=VECTOR('',#616,1.);
#116=VECTOR('',#617,1.);
#117=VECTOR('',#618,1.);
#118=VECTOR('',#621,1.);
#119=VECTOR('',#622,1.);
#120=ORIENTED_EDGE('',*,*,#240,.F.);
#121=ORIENTED_EDGE('',*,*,#241,.T.);
#122=ORIENTED_EDGE('',*,*,#242,.T.);
#123=ORIENTED_EDGE('',*,*,#243,.T.);
#124=ORIENTED_EDGE('',*,*,#244,.F.);
#125=ORIENTED_EDGE('',*,*,#245,.F.);
#126=ORIENTED_EDGE('',*,*,#246,.F.);
#127=ORIENTED_EDGE('',*,*,#244,.T.);
#128=ORIENTED_EDGE('',*,*,#247,.T.);
#129=ORIENTED_EDGE('',*,*,#248,.T.);
#130=ORIENTED_EDGE('',*,*,#249,.T.);
#131=ORIENTED_EDGE('',*,*,#250,.T.);
#132=ORIENTED_EDGE('',*,*,#251,.F.);
#133=ORIENTED_EDGE('',*,*,#252,.T.);
#134=ORIENTED_EDGE('',*,*,#241,.F.);
#135=ORIENTED_EDGE('',*,*,#246,.T.);
#136=ORIENTED_EDGE('',*,*,#240,.T.);
#137=ORIENTED_EDGE('',*,*,#253,.F.);
#138=ORIENTED_EDGE('',*,*,#254,.T.);
#139=ORIENTED_EDGE('',*,*,#255,.F.);
#140=ORIENTED_EDGE('',*,*,#256,.F.);
#141=ORIENTED_EDGE('',*,*,#249,.F.);
#142=ORIENTED_EDGE('',*,*,#257,.T.);
#143=ORIENTED_EDGE('',*,*,#258,.T.);
#144=ORIENTED_EDGE('',*,*,#259,.F.);
#145=ORIENTED_EDGE('',*,*,#260,.F.);
#146=ORIENTED_EDGE('',*,*,#261,.T.);
#147=ORIENTED_EDGE('',*,*,#257,.F.);
#148=ORIENTED_EDGE('',*,*,#248,.F.);
#149=ORIENTED_EDGE('',*,*,#254,.F.);
#150=ORIENTED_EDGE('',*,*,#255,.T.);
#151=ORIENTED_EDGE('',*,*,#253,.T.);
#152=ORIENTED_EDGE('',*,*,#245,.T.);
#153=ORIENTED_EDGE('',*,*,#256,.T.);
#154=ORIENTED_EDGE('',*,*,#262,.F.);
#155=ORIENTED_EDGE('',*,*,#250,.F.);
#156=ORIENTED_EDGE('',*,*,#247,.F.);
#157=ORIENTED_EDGE('',*,*,#263,.T.);
#158=ORIENTED_EDGE('',*,*,#264,.T.);
#159=ORIENTED_EDGE('',*,*,#265,.F.);
#160=ORIENTED_EDGE('',*,*,#266,.T.);
#161=ORIENTED_EDGE('',*,*,#267,.T.);
#162=ORIENTED_EDGE('',*,*,#268,.F.);
#163=ORIENTED_EDGE('',*,*,#263,.F.);
#164=ORIENTED_EDGE('',*,*,#243,.F.);
#165=ORIENTED_EDGE('',*,*,#269,.F.);
#166=ORIENTED_EDGE('',*,*,#270,.F.);
#167=ORIENTED_EDGE('',*,*,#271,.T.);
#168=ORIENTED_EDGE('',*,*,#272,.T.);
#169=ORIENTED_EDGE('',*,*,#273,.F.);
#170=ORIENTED_EDGE('',*,*,#274,.T.);
#171=ORIENTED_EDGE('',*,*,#275,.T.);
#172=ORIENTED_EDGE('',*,*,#276,.F.);
#173=ORIENTED_EDGE('',*,*,#277,.F.);
#174=ORIENTED_EDGE('',*,*,#278,.T.);
#175=ORIENTED_EDGE('',*,*,#279,.F.);
#176=ORIENTED_EDGE('',*,*,#278,.F.);
#177=ORIENTED_EDGE('',*,*,#280,.T.);
#178=ORIENTED_EDGE('',*,*,#281,.T.);
#179=ORIENTED_EDGE('',*,*,#282,.F.);
#180=ORIENTED_EDGE('',*,*,#281,.F.);
#181=ORIENTED_EDGE('',*,*,#283,.T.);
#182=ORIENTED_EDGE('',*,*,#284,.T.);
#183=ORIENTED_EDGE('',*,*,#285,.F.);
#184=ORIENTED_EDGE('',*,*,#284,.F.);
#185=ORIENTED_EDGE('',*,*,#286,.T.);
#186=ORIENTED_EDGE('',*,*,#287,.T.);
#187=ORIENTED_EDGE('',*,*,#288,.T.);
#188=ORIENTED_EDGE('',*,*,#289,.T.);
#189=ORIENTED_EDGE('',*,*,#290,.T.);
#190=ORIENTED_EDGE('',*,*,#287,.F.);
#191=ORIENTED_EDGE('',*,*,#291,.F.);
#192=ORIENTED_EDGE('',*,*,#276,.T.);
#193=ORIENTED_EDGE('',*,*,#292,.T.);
#194=ORIENTED_EDGE('',*,*,#293,.T.);
#195=ORIENTED_EDGE('',*,*,#294,.F.);
#196=ORIENTED_EDGE('',*,*,#260,.T.);
#197=ORIENTED_EDGE('',*,*,#265,.T.);
#198=ORIENTED_EDGE('',*,*,#277,.T.);
#199=ORIENTED_EDGE('',*,*,#291,.T.);
#200=ORIENTED_EDGE('',*,*,#286,.F.);
#201=ORIENTED_EDGE('',*,*,#283,.F.);
#202=ORIENTED_EDGE('',*,*,#280,.F.);
#203=ORIENTED_EDGE('',*,*,#294,.T.);
#204=ORIENTED_EDGE('',*,*,#295,.T.);
#205=ORIENTED_EDGE('',*,*,#271,.F.);
#206=ORIENTED_EDGE('',*,*,#296,.T.);
#207=ORIENTED_EDGE('',*,*,#266,.F.);
#208=ORIENTED_EDGE('',*,*,#242,.F.);
#209=ORIENTED_EDGE('',*,*,#252,.F.);
#210=ORIENTED_EDGE('',*,*,#297,.T.);
#211=ORIENTED_EDGE('',*,*,#258,.F.);
#212=ORIENTED_EDGE('',*,*,#261,.F.);
#213=ORIENTED_EDGE('',*,*,#275,.F.);
#214=ORIENTED_EDGE('',*,*,#279,.T.);
#215=ORIENTED_EDGE('',*,*,#282,.T.);
#216=ORIENTED_EDGE('',*,*,#285,.T.);
#217=ORIENTED_EDGE('',*,*,#290,.F.);
#218=ORIENTED_EDGE('',*,*,#273,.T.);
#219=ORIENTED_EDGE('',*,*,#298,.T.);
#220=ORIENTED_EDGE('',*,*,#292,.F.);
#221=ORIENTED_EDGE('',*,*,#264,.F.);
#222=ORIENTED_EDGE('',*,*,#268,.T.);
#223=ORIENTED_EDGE('',*,*,#299,.T.);
#224=ORIENTED_EDGE('',*,*,#270,.T.);
#225=ORIENTED_EDGE('',*,*,#289,.F.);
#226=ORIENTED_EDGE('',*,*,#269,.T.);
#227=ORIENTED_EDGE('',*,*,#288,.F.);
#228=ORIENTED_EDGE('',*,*,#297,.F.);
#229=ORIENTED_EDGE('',*,*,#251,.T.);
#230=ORIENTED_EDGE('',*,*,#262,.T.);
#231=ORIENTED_EDGE('',*,*,#259,.T.);
#232=ORIENTED_EDGE('',*,*,#295,.F.);
#233=ORIENTED_EDGE('',*,*,#293,.F.);
#234=ORIENTED_EDGE('',*,*,#298,.F.);
#235=ORIENTED_EDGE('',*,*,#272,.F.);
#236=ORIENTED_EDGE('',*,*,#296,.F.);
#237=ORIENTED_EDGE('',*,*,#274,.F.);
#238=ORIENTED_EDGE('',*,*,#299,.F.);
#239=ORIENTED_EDGE('',*,*,#267,.F.);
#240=EDGE_CURVE('',#300,#300,#342,.T.);
#241=EDGE_CURVE('',#301,#302,#16,.T.);
#242=EDGE_CURVE('',#302,#303,#17,.T.);
#243=EDGE_CURVE('',#303,#304,#18,.T.);
#244=EDGE_CURVE('',#301,#304,#19,.T.);
#245=EDGE_CURVE('',#305,#306,#20,.T.);
#246=EDGE_CURVE('',#301,#305,#21,.T.);
#247=EDGE_CURVE('',#304,#307,#22,.T.);
#248=EDGE_CURVE('',#307,#308,#23,.T.);
#249=EDGE_CURVE('',#308,#306,#24,.T.);
#250=EDGE_CURVE('',#305,#309,#25,.T.);
#251=EDGE_CURVE('',#310,#309,#26,.T.);
#252=EDGE_CURVE('',#310,#302,#27,.T.);
#253=EDGE_CURVE('',#311,#311,#343,.T.);
#254=EDGE_CURVE('',#312,#312,#344,.T.);
#255=EDGE_CURVE('',#313,#313,#345,.T.);
#256=EDGE_CURVE('',#306,#314,#28,.T.);
#257=EDGE_CURVE('',#308,#315,#29,.T.);
#258=EDGE_CURVE('',#315,#316,#30,.T.);
#259=EDGE_CURVE('',#314,#316,#31,.T.);
#260=EDGE_CURVE('',#317,#307,#32,.T.);
#261=EDGE_CURVE('',#317,#315,#33,.T.);
#262=EDGE_CURVE('',#309,#314,#34,.T.);
#263=EDGE_CURVE('',#304,#318,#35,.T.);
#264=EDGE_CURVE('',#318,#319,#36,.T.);
#265=EDGE_CURVE('',#307,#319,#37,.T.);
#266=EDGE_CURVE('',#303,#320,#38,.T.);
#267=EDGE_CURVE('',#320,#321,#39,.T.);
#268=EDGE_CURVE('',#318,#321,#40,.T.);
#269=EDGE_CURVE('',#322,#322,#346,.T.);
#270=EDGE_CURVE('',#323,#323,#347,.T.);
#271=EDGE_CURVE('',#324,#325,#41,.T.);
#272=EDGE_CURVE('',#325,#326,#42,.T.);
#273=EDGE_CURVE('',#327,#326,#43,.T.);
#274=EDGE_CURVE('',#327,#324,#44,.T.);
#275=EDGE_CURVE('',#328,#329,#45,.T.);
#276=EDGE_CURVE('',#330,#329,#46,.T.);
#277=EDGE_CURVE('',#331,#330,#47,.T.);
#278=EDGE_CURVE('',#331,#328,#48,.T.);
#279=EDGE_CURVE('',#328,#332,#49,.T.);
#280=EDGE_CURVE('',#331,#333,#50,.T.);
#281=EDGE_CURVE('',#333,#332,#51,.T.);
#282=EDGE_CURVE('',#332,#334,#52,.T.);
#283=EDGE_CURVE('',#333,#335,#53,.T.);
#284=EDGE_CURVE('',#335,#334,#54,.T.);
#285=EDGE_CURVE('',#334,#336,#55,.T.);
#286=EDGE_CURVE('',#335,#337,#56,.T.);
#287=EDGE_CURVE('',#337,#336,#57,.T.);
#288=EDGE_CURVE('',#338,#338,#348,.T.);
#289=EDGE_CURVE('',#339,#339,#349,.T.);
#290=EDGE_CURVE('',#329,#336,#58,.T.);
#291=EDGE_CURVE('',#330,#337,#59,.T.);
#292=EDGE_CURVE('',#319,#340,#60,.T.);
#293=EDGE_CURVE('',#340,#341,#61,.T.);
#294=EDGE_CURVE('',#317,#341,#62,.T.);
#295=EDGE_CURVE('',#341,#325,#63,.T.);
#296=EDGE_CURVE('',#324,#320,#64,.F.);
#297=EDGE_CURVE('',#310,#316,#65,.T.);
#298=EDGE_CURVE('',#326,#340,#66,.T.);
#299=EDGE_CURVE('',#321,#327,#67,.F.);
#300=VERTEX_POINT('',#636);
#301=VERTEX_POINT('',#638);
#302=VERTEX_POINT('',#639);
#303=VERTEX_POINT('',#641);
#304=VERTEX_POINT('',#643);
#305=VERTEX_POINT('',#647);
#306=VERTEX_POINT('',#648);
#307=VERTEX_POINT('',#651);
#308=VERTEX_POINT('',#653);
#309=VERTEX_POINT('',#657);
#310=VERTEX_POINT('',#659);
#311=VERTEX_POINT('',#663);
#312=VERTEX_POINT('',#666);
#313=VERTEX_POINT('',#668);
#314=VERTEX_POINT('',#671);
#315=VERTEX_POINT('',#673);
#316=VERTEX_POINT('',#675);
#317=VERTEX_POINT('',#679);
#318=VERTEX_POINT('',#685);
#319=VERTEX_POINT('',#687);
#320=VERTEX_POINT('',#691);
#321=VERTEX_POINT('',#693);
#322=VERTEX_POINT('',#697);
#323=VERTEX_POINT('',#699);
#324=VERTEX_POINT('',#701);
#325=VERTEX_POINT('',#702);
#326=VERTEX_POINT('',#704);
#327=VERTEX_POINT('',#706);
#328=VERTEX_POINT('',#710);
#329=VERTEX_POINT('',#711);
#330=VERTEX_POINT('',#713);
#331=VERTEX_POINT('',#715);
#332=VERTEX_POINT('',#719);
#333=VERTEX_POINT('',#721);
#334=VERTEX_POINT('',#725);
#335=VERTEX_POINT('',#727);
#336=VERTEX_POINT('',#731);
#337=VERTEX_POINT('',#733);
#338=VERTEX_POINT('',#737);
#339=VERTEX_POINT('',#739);
#340=VERTEX_POINT('',#744);
#341=VERTEX_POINT('',#746);
#342=CIRCLE('',#484,0.0016);
#343=CIRCLE('',#488,0.0016);
#344=CIRCLE('',#490,0.0016);
#345=CIRCLE('',#491,0.0016);
#346=CIRCLE('',#498,0.0019);
#347=CIRCLE('',#499,0.0019);
#348=CIRCLE('',#505,0.0019);
#349=CIRCLE('',#506,0.0019);
#350=EDGE_LOOP('',(#120));
#351=EDGE_LOOP('',(#121,#122,#123,#124));
#352=EDGE_LOOP('',(#125,#126,#127,#128,#129,#130));
#353=EDGE_LOOP('',(#131,#132,#133,#134,#135));
#354=EDGE_LOOP('',(#136));
#355=EDGE_LOOP('',(#137));
#356=EDGE_LOOP('',(#138));
#357=EDGE_LOOP('',(#139));
#358=EDGE_LOOP('',(#140,#141,#142,#143,#144));
#359=EDGE_LOOP('',(#145,#146,#147,#148));
#360=EDGE_LOOP('',(#149));
#361=EDGE_LOOP('',(#150));
#362=EDGE_LOOP('',(#151));
#363=EDGE_LOOP('',(#152,#153,#154,#155));
#364=EDGE_LOOP('',(#156,#157,#158,#159));
#365=EDGE_LOOP('',(#160,#161,#162,#163,#164));
#366=EDGE_LOOP('',(#165));
#367=EDGE_LOOP('',(#166));
#368=EDGE_LOOP('',(#167,#168,#169,#170));
#369=EDGE_LOOP('',(#171,#172,#173,#174));
#370=EDGE_LOOP('',(#175,#176,#177,#178));
#371=EDGE_LOOP('',(#179,#180,#181,#182));
#372=EDGE_LOOP('',(#183,#184,#185,#186));
#373=EDGE_LOOP('',(#187));
#374=EDGE_LOOP('',(#188));
#375=EDGE_LOOP('',(#189,#190,#191,#192));
#376=EDGE_LOOP('',(#193,#194,#195,#196,#197));
#377=EDGE_LOOP('',(#198,#199,#200,#201,#202));
#378=EDGE_LOOP('',(#203,#204,#205,#206,#207,#208,#209,#210,#211,#212));
#379=EDGE_LOOP('',(#213,#214,#215,#216,#217));
#380=EDGE_LOOP('',(#218,#219,#220,#221,#222,#223));
#381=EDGE_LOOP('',(#224));
#382=EDGE_LOOP('',(#225));
#383=EDGE_LOOP('',(#226));
#384=EDGE_LOOP('',(#227));
#385=EDGE_LOOP('',(#228,#229,#230,#231));
#386=EDGE_LOOP('',(#232,#233,#234,#235));
#387=EDGE_LOOP('',(#236,#237,#238,#239));
#388=FACE_BOUND('',#350,.T.);
#389=FACE_BOUND('',#351,.T.);
#390=FACE_BOUND('',#352,.T.);
#391=FACE_BOUND('',#353,.T.);
#392=FACE_BOUND('',#354,.T.);
#393=FACE_BOUND('',#355,.T.);
#394=FACE_BOUND('',#356,.T.);
#395=FACE_BOUND('',#357,.T.);
#396=FACE_BOUND('',#358,.T.);
#397=FACE_BOUND('',#359,.T.);
#398=FACE_BOUND('',#360,.T.);
#399=FACE_BOUND('',#361,.T.);
#400=FACE_BOUND('',#362,.T.);
#401=FACE_BOUND('',#363,.T.);
#402=FACE_BOUND('',#364,.T.);
#403=FACE_BOUND('',#365,.T.);
#404=FACE_BOUND('',#366,.T.);
#405=FACE_BOUND('',#367,.T.);
#406=FACE_BOUND('',#368,.T.);
#407=FACE_BOUND('',#369,.T.);
#408=FACE_BOUND('',#370,.T.);
#409=FACE_BOUND('',#371,.T.);
#410=FACE_BOUND('',#372,.T.);
#411=FACE_BOUND('',#373,.T.);
#412=FACE_BOUND('',#374,.T.);
#413=FACE_BOUND('',#375,.T.);
#414=FACE_BOUND('',#376,.T.);
#415=FACE_BOUND('',#377,.T.);
#416=FACE_BOUND('',#378,.T.);
#417=FACE_BOUND('',#379,.T.);
#418=FACE_BOUND('',#380,.T.);
#419=FACE_BOUND('',#381,.T.);
#420=FACE_BOUND('',#382,.T.);
#421=FACE_BOUND('',#383,.T.);
#422=FACE_BOUND('',#384,.T.);
#423=FACE_BOUND('',#385,.T.);
#424=FACE_BOUND('',#386,.T.);
#425=FACE_BOUND('',#387,.T.);
#426=PLANE('',#483);
#427=PLANE('',#485);
#428=PLANE('',#486);
#429=PLANE('',#492);
#430=PLANE('',#493);
#431=PLANE('',#494);
#432=PLANE('',#495);
#433=PLANE('',#496);
#434=PLANE('',#497);
#435=PLANE('',#500);
#436=PLANE('',#501);
#437=PLANE('',#502);
#438=PLANE('',#503);
#439=PLANE('',#504);
#440=PLANE('',#507);
#441=PLANE('',#508);
#442=PLANE('',#509);
#443=PLANE('',#512);
#444=PLANE('',#513);
#445=PLANE('',#514);
#446=ADVANCED_FACE('',(#388,#389),#426,.T.);
#447=ADVANCED_FACE('',(#390),#427,.T.);
#448=ADVANCED_FACE('',(#391),#428,.F.);
#449=ADVANCED_FACE('',(#392,#393),#12,.F.);
#450=ADVANCED_FACE('',(#394,#395),#13,.F.);
#451=ADVANCED_FACE('',(#396),#429,.T.);
#452=ADVANCED_FACE('',(#397,#398),#430,.T.);
#453=ADVANCED_FACE('',(#399,#400,#401),#431,.F.);
#454=ADVANCED_FACE('',(#402),#432,.F.);
#455=ADVANCED_FACE('',(#403),#433,.T.);
#456=ADVANCED_FACE('',(#404,#405,#406),#434,.T.);
#457=ADVANCED_FACE('',(#407),#435,.F.);
#458=ADVANCED_FACE('',(#408),#436,.T.);
#459=ADVANCED_FACE('',(#409),#437,.T.);
#460=ADVANCED_FACE('',(#410),#438,.T.);
#461=ADVANCED_FACE('',(#411,#412,#413),#439,.F.);
#462=ADVANCED_FACE('',(#414),#440,.F.);
#463=ADVANCED_FACE('',(#415,#416),#441,.F.);
#464=ADVANCED_FACE('',(#417,#418),#442,.T.);
#465=ADVANCED_FACE('',(#419,#420),#14,.F.);
#466=ADVANCED_FACE('',(#421,#422),#15,.F.);
#467=ADVANCED_FACE('',(#423),#443,.F.);
#468=ADVANCED_FACE('',(#424),#444,.T.);
#469=ADVANCED_FACE('',(#425),#445,.F.);
#470=CLOSED_SHELL('',(#446,#447,#448,#449,#450,#451,#452,#453,#454,#455,
#456,#457,#458,#459,#460,#461,#462,#463,#464,#465,#466,#467,#468,#469));
#471=STYLED_ITEM('',(#472),#479);
#472=PRESENTATION_STYLE_ASSIGNMENT((#473));
#473=SURFACE_STYLE_USAGE(.BOTH.,#474);
#474=SURFACE_SIDE_STYLE('',(#475));
#475=SURFACE_STYLE_FILL_AREA(#476);
#476=FILL_AREA_STYLE('',(#477));
#477=FILL_AREA_STYLE_COLOUR('',#478);
#478=COLOUR_RGB('',0.615686274509804,0.811764705882353,0.929411764705882);
#479=MANIFOLD_SOLID_BREP('Part 1',#470);
#480=SHAPE_DEFINITION_REPRESENTATION(#766,#481);
#481=SHAPE_REPRESENTATION('Part 1',(#482),#761);
#482=AXIS2_PLACEMENT_3D('',#633,#515,#516);
#483=AXIS2_PLACEMENT_3D('',#634,#517,#518);
#484=AXIS2_PLACEMENT_3D('',#635,#519,#520);
#485=AXIS2_PLACEMENT_3D('',#645,#525,#526);
#486=AXIS2_PLACEMENT_3D('',#655,#532,#533);
#487=AXIS2_PLACEMENT_3D('',#661,#537,#538);
#488=AXIS2_PLACEMENT_3D('',#662,#539,#540);
#489=AXIS2_PLACEMENT_3D('',#664,#541,#542);
#490=AXIS2_PLACEMENT_3D('',#665,#543,#544);
#491=AXIS2_PLACEMENT_3D('',#667,#545,#546);
#492=AXIS2_PLACEMENT_3D('',#669,#547,#548);
#493=AXIS2_PLACEMENT_3D('',#677,#553,#554);
#494=AXIS2_PLACEMENT_3D('',#681,#557,#558);
#495=AXIS2_PLACEMENT_3D('',#683,#560,#561);
#496=AXIS2_PLACEMENT_3D('',#689,#565,#566);
#497=AXIS2_PLACEMENT_3D('',#695,#570,#571);
#498=AXIS2_PLACEMENT_3D('',#696,#572,#573);
#499=AXIS2_PLACEMENT_3D('',#698,#574,#575);
#500=AXIS2_PLACEMENT_3D('',#708,#580,#581);
#501=AXIS2_PLACEMENT_3D('',#717,#586,#587);
#502=AXIS2_PLACEMENT_3D('',#723,#591,#592);
#503=AXIS2_PLACEMENT_3D('',#729,#596,#597);
#504=AXIS2_PLACEMENT_3D('',#735,#601,#602);
#505=AXIS2_PLACEMENT_3D('',#736,#603,#604);
#506=AXIS2_PLACEMENT_3D('',#738,#605,#606);
#507=AXIS2_PLACEMENT_3D('',#742,#609,#610);
#508=AXIS2_PLACEMENT_3D('',#748,#614,#615);
#509=AXIS2_PLACEMENT_3D('',#752,#619,#620);
#510=AXIS2_PLACEMENT_3D('',#755,#623,#624);
#511=AXIS2_PLACEMENT_3D('',#756,#625,#626);
#512=AXIS2_PLACEMENT_3D('',#757,#627,#628);
#513=AXIS2_PLACEMENT_3D('',#758,#629,#630);
#514=AXIS2_PLACEMENT_3D('',#759,#631,#632);
#515=DIRECTION('',(0.,0.,1.));
#516=DIRECTION('',(1.,0.,0.));
#517=DIRECTION('',(0.,0.,1.));
#518=DIRECTION('',(1.,0.,0.));
#519=DIRECTION('',(0.,0.,1.));
#520=DIRECTION('',(0.,-1.,0.));
#521=DIRECTION('',(0.,-1.,0.));
#522=DIRECTION('',(1.,0.,0.));
#523=DIRECTION('',(0.,1.,0.));
#524=DIRECTION('',(1.,0.,0.));
#525=DIRECTION('',(0.,1.,0.));
#526=DIRECTION('',(1.,0.,0.));
#527=DIRECTION('',(1.,0.,0.));
#528=DIRECTION('',(0.,0.,-1.));
#529=DIRECTION('',(1.,0.,0.));
#530=DIRECTION('',(1.,0.,0.));
#531=DIRECTION('',(0.,0.,-1.));
#532=DIRECTION('',(1.,0.,0.));
#533=DIRECTION('',(0.,-1.,0.));
#534=DIRECTION('',(0.,-1.,0.));
#535=DIRECTION('',(0.,0.970142500145332,-0.242535625036333));
#536=DIRECTION('',(0.,0.,1.));
#537=DIRECTION('',(0.,0.,-1.));
#538=DIRECTION('',(0.,1.,0.));
#539=DIRECTION('',(0.,0.,1.));
#540=DIRECTION('',(0.,-1.,0.));
#541=DIRECTION('',(0.,0.,-1.));
#542=DIRECTION('',(0.,1.,0.));
#543=DIRECTION('',(0.,0.,1.));
#544=DIRECTION('',(0.,-1.,0.));
#545=DIRECTION('',(0.,0.,1.));
#546=DIRECTION('',(0.,-1.,0.));
#547=DIRECTION('',(1.,0.,0.));
#548=DIRECTION('',(0.,-1.,0.));
#549=DIRECTION('',(0.,-1.,0.));
#550=DIRECTION('',(0.,-1.,0.));
#551=DIRECTION('',(0.,0.,-1.));
#552=DIRECTION('',(0.,-0.970142500145332,0.242535625036333));
#553=DIRECTION('',(0.,0.,1.));
#554=DIRECTION('',(1.,0.,0.));
#555=DIRECTION('',(0.,1.,0.));
#556=DIRECTION('',(1.,0.,0.));
#557=DIRECTION('',(0.,0.,1.));
#558=DIRECTION('',(1.,0.,0.));
#559=DIRECTION('',(1.,0.,0.));
#560=DIRECTION('',(0.,0.,1.));
#561=DIRECTION('',(0.,-1.,0.));
#562=DIRECTION('',(0.,1.,0.));
#563=DIRECTION('',(1.,0.,0.));
#564=DIRECTION('',(0.,1.,0.));
#565=DIRECTION('',(-1.,0.,0.));
#566=DIRECTION('',(0.,1.,0.));
#567=DIRECTION('',(0.,0.,1.));
#568=DIRECTION('',(0.,1.,0.));
#569=DIRECTION('',(0.,0.,1.));
#570=DIRECTION('',(3.85494105772624E-16,0.,1.));
#571=DIRECTION('',(1.,0.,-3.85494105772624E-16));
#572=DIRECTION('',(3.85494105772624E-16,0.,1.));
#573=DIRECTION('',(1.,0.,-3.85494105772624E-16));
#574=DIRECTION('',(3.85494105772624E-16,0.,1.));
#575=DIRECTION('',(1.,0.,-3.85494105772624E-16));
#576=DIRECTION('',(1.,0.,-3.85494105772624E-16));
#577=DIRECTION('',(0.,1.,0.));
#578=DIRECTION('',(1.,0.,-3.85494105772624E-16));
#579=DIRECTION('',(0.,-1.,0.));
#580=DIRECTION('',(-1.,0.,0.));
#581=DIRECTION('',(0.,1.,0.));
#582=DIRECTION('',(0.,0.,1.));
#583=DIRECTION('',(0.,1.,0.));
#584=DIRECTION('',(0.,0.,1.));
#585=DIRECTION('',(0.,1.,0.));
#586=DIRECTION('',(0.393919298579167,0.,0.919145030018058));
#587=DIRECTION('',(0.919145030018058,0.,-0.393919298579167));
#588=DIRECTION('',(0.919145030018058,0.,-0.393919298579167));
#589=DIRECTION('',(0.919145030018058,0.,-0.393919298579167));
#590=DIRECTION('',(0.,1.,0.));
#591=DIRECTION('',(-0.393919298579167,0.,0.919145030018058));
#592=DIRECTION('',(0.919145030018058,0.,0.393919298579167));
#593=DIRECTION('',(0.919145030018058,0.,0.393919298579167));
#594=DIRECTION('',(0.919145030018058,0.,0.393919298579167));
#595=DIRECTION('',(0.,1.,0.));
#596=DIRECTION('',(-1.,0.,7.2280144832367E-17));
#597=DIRECTION('',(7.2280144832367E-17,0.,1.));
#598=DIRECTION('',(7.2280144832367E-17,0.,1.));
#599=DIRECTION('',(7.2280144832367E-17,0.,1.));
#600=DIRECTION('',(0.,1.,0.));
#601=DIRECTION('',(0.,0.,1.));
#602=DIRECTION('',(0.,-1.,0.));
#603=DIRECTION('',(0.,0.,1.));
#604=DIRECTION('',(0.,-1.,0.));
#605=DIRECTION('',(0.,0.,1.));
#606=DIRECTION('',(0.,-1.,0.));
#607=DIRECTION('',(1.,0.,0.));
#608=DIRECTION('',(1.,0.,0.));
#609=DIRECTION('',(-1.,0.,5.91383003173912E-17));
#610=DIRECTION('',(5.91383003173912E-17,0.,1.));
#611=DIRECTION('',(5.91383003173912E-17,0.,1.));
#612=DIRECTION('',(0.,-1.,0.));
#613=DIRECTION('',(5.91383003173912E-17,0.,1.));
#614=DIRECTION('',(0.,1.,0.));
#615=DIRECTION('',(1.,0.,0.));
#616=DIRECTION('',(-0.707106781186549,0.,0.707106781186547));
#617=DIRECTION('',(0.707106781186548,0.,0.707106781186548));
#618=DIRECTION('',(1.,0.,0.));
#619=DIRECTION('',(0.,1.,0.));
#620=DIRECTION('',(1.,0.,0.));
#621=DIRECTION('',(0.707106781186549,0.,-0.707106781186547));
#622=DIRECTION('',(-0.707106781186548,0.,-0.707106781186548));
#623=DIRECTION('',(3.85494105772624E-16,0.,1.));
#624=DIRECTION('',(1.,0.,-3.85494105772624E-16));
#625=DIRECTION('',(3.85494105772624E-16,0.,1.));
#626=DIRECTION('',(1.,0.,-3.85494105772624E-16));
#627=DIRECTION('',(0.,0.242535625036333,0.970142500145332));
#628=DIRECTION('',(0.,-0.970142500145332,0.242535625036333));
#629=DIRECTION('',(0.707106781186547,0.,0.707106781186549));
#630=DIRECTION('',(0.,-1.,0.));
#631=DIRECTION('',(0.707106781186548,0.,-0.707106781186548));
#632=DIRECTION('',(0.,1.,0.));
#633=CARTESIAN_POINT('',(0.,0.,0.));
#634=CARTESIAN_POINT('',(-3.46944695195361E-18,0.,0.003));
#635=CARTESIAN_POINT('',(-0.02,9.79717439317883E-20,0.003));
#636=CARTESIAN_POINT('',(-0.02,-0.0016,0.003));
#637=CARTESIAN_POINT('',(-0.023,0.,0.003));
#638=CARTESIAN_POINT('',(-0.023,0.003,0.003));
#639=CARTESIAN_POINT('',(-0.023,-0.011,0.003));
#640=CARTESIAN_POINT('',(-0.023002,-0.011,0.003));
#641=CARTESIAN_POINT('',(-0.015,-0.011,0.003));
#642=CARTESIAN_POINT('',(-0.015,-0.011,0.003));
#643=CARTESIAN_POINT('',(-0.015,0.003,0.003));
#644=CARTESIAN_POINT('',(-3.46944695195361E-18,0.003,0.003));
#645=CARTESIAN_POINT('',(-3.46944695195361E-18,0.003,0.003));
#646=CARTESIAN_POINT('',(-3.46944695195361E-18,0.003,0.));
#647=CARTESIAN_POINT('',(-0.023,0.003,0.));
#648=CARTESIAN_POINT('',(0.023,0.003,0.));
#649=CARTESIAN_POINT('',(-0.023,0.003,0.003));
#650=CARTESIAN_POINT('',(-3.46944695195361E-18,0.003,0.003));
#651=CARTESIAN_POINT('',(0.003,0.003,0.003));
#652=CARTESIAN_POINT('',(-3.46944695195361E-18,0.003,0.003));
#653=CARTESIAN_POINT('',(0.023,0.003,0.003));
#654=CARTESIAN_POINT('',(0.023,0.003,0.003));
#655=CARTESIAN_POINT('',(-0.023,0.,0.003));
#656=CARTESIAN_POINT('',(-0.023,0.,0.));
#657=CARTESIAN_POINT('',(-0.023,-0.003,-4.33680868994202E-19));
#658=CARTESIAN_POINT('',(-0.023,-0.007,0.001));
#659=CARTESIAN_POINT('',(-0.023,-0.011,0.002));
#660=CARTESIAN_POINT('',(-0.023,-0.011,0.0025));
#661=CARTESIAN_POINT('',(-0.02,9.79717439317883E-20,0.003));
#662=CARTESIAN_POINT('',(-0.02,9.79717439317883E-20,0.));
#663=CARTESIAN_POINT('',(-0.02,-0.0016,0.));
#664=CARTESIAN_POINT('',(0.02,9.79717439317883E-20,0.003));
#665=CARTESIAN_POINT('',(0.02,9.79717439317883E-20,0.003));
#666=CARTESIAN_POINT('',(0.02,-0.0016,0.003));
#667=CARTESIAN_POINT('',(0.02,9.79717439317883E-20,0.));
#668=CARTESIAN_POINT('',(0.02,-0.0016,0.));
#669=CARTESIAN_POINT('',(0.023,0.,0.003));
#670=CARTESIAN_POINT('',(0.023,0.,0.));
#671=CARTESIAN_POINT('',(0.023,-0.003,-4.33680868994202E-19));
#672=CARTESIAN_POINT('',(0.023,0.,0.003));
#673=CARTESIAN_POINT('',(0.023,-0.011,0.003));
#674=CARTESIAN_POINT('',(0.023,-0.011,0.0025));
#675=CARTESIAN_POINT('',(0.023,-0.011,0.002));
#676=CARTESIAN_POINT('',(0.023,-0.007,0.001));
#677=CARTESIAN_POINT('',(-3.46944695195361E-18,0.,0.003));
#678=CARTESIAN_POINT('',(0.003,-0.011,0.003));
#679=CARTESIAN_POINT('',(0.003,-0.011,0.003));
#680=CARTESIAN_POINT('',(-0.023002,-0.011,0.003));
#681=CARTESIAN_POINT('',(-3.46944695195361E-18,0.,0.));
#682=CARTESIAN_POINT('',(-3.46944695195361E-18,-0.003,0.));
#683=CARTESIAN_POINT('',(-0.006,-0.011,0.003));
#684=CARTESIAN_POINT('',(-0.015,-0.011,0.003));
#685=CARTESIAN_POINT('',(-0.015,0.029,0.003));
#686=CARTESIAN_POINT('',(-0.006,0.029,0.003));
#687=CARTESIAN_POINT('',(0.003,0.029,0.003));
#688=CARTESIAN_POINT('',(0.003,-0.011,0.003));
#689=CARTESIAN_POINT('',(-0.015,-0.011,0.014));
#690=CARTESIAN_POINT('',(-0.015,-0.011,0.014));
#691=CARTESIAN_POINT('',(-0.015,-0.011,0.021));
#692=CARTESIAN_POINT('',(-0.015,-0.011,0.021));
#693=CARTESIAN_POINT('',(-0.015,0.029,0.021));
#694=CARTESIAN_POINT('',(-0.015,0.029,0.014));
#695=CARTESIAN_POINT('',(-0.006,-0.011,0.025));
#696=CARTESIAN_POINT('',(-0.006,0.021,0.025));
#697=CARTESIAN_POINT('',(-0.0041,0.021,0.025));
#698=CARTESIAN_POINT('',(-0.006,-0.003,0.025));
#699=CARTESIAN_POINT('',(-0.0041,-0.003,0.025));
#700=CARTESIAN_POINT('',(-0.006,-0.011,0.025));
#701=CARTESIAN_POINT('',(-0.011,-0.011,0.025));
#702=CARTESIAN_POINT('',(-0.001,-0.011,0.025));
#703=CARTESIAN_POINT('',(-0.001,0.029,0.025));
#704=CARTESIAN_POINT('',(-0.001,0.029,0.025));
#705=CARTESIAN_POINT('',(-0.006,0.029,0.025));
#706=CARTESIAN_POINT('',(-0.011,0.029,0.025));
#707=CARTESIAN_POINT('',(-0.011,-0.011,0.025));
#708=CARTESIAN_POINT('',(-0.013,-0.011,0.0145));
#709=CARTESIAN_POINT('',(-0.013,0.029,0.0145));
#710=CARTESIAN_POINT('',(-0.013,0.029,0.01));
#711=CARTESIAN_POINT('',(-0.013,0.029,0.019));
#712=CARTESIAN_POINT('',(-0.013,-0.011,0.019));
#713=CARTESIAN_POINT('',(-0.013,-0.011,0.019));
#714=CARTESIAN_POINT('',(-0.013,-0.011,0.0145));
#715=CARTESIAN_POINT('',(-0.013,-0.011,0.01));
#716=CARTESIAN_POINT('',(-0.013,-0.011,0.01));
#717=CARTESIAN_POINT('',(-0.0095,-0.011,0.0085));
#718=CARTESIAN_POINT('',(-0.0095,0.029,0.0085));
#719=CARTESIAN_POINT('',(-0.006,0.029,0.007));
#720=CARTESIAN_POINT('',(-0.0095,-0.011,0.0085));
#721=CARTESIAN_POINT('',(-0.006,-0.011,0.007));
#722=CARTESIAN_POINT('',(-0.006,-0.011,0.007));
#723=CARTESIAN_POINT('',(-0.0025,-0.011,0.0085));
#724=CARTESIAN_POINT('',(-0.0025,0.029,0.0085));
#725=CARTESIAN_POINT('',(0.001,0.029,0.01));
#726=CARTESIAN_POINT('',(-0.0025,-0.011,0.0085));
#727=CARTESIAN_POINT('',(0.001,-0.011,0.01));
#728=CARTESIAN_POINT('',(0.001,-0.011,0.01));
#729=CARTESIAN_POINT('',(0.001,-0.011,0.0145));
#730=CARTESIAN_POINT('',(0.001,0.029,0.0145));
#731=CARTESIAN_POINT('',(0.001,0.029,0.019));
#732=CARTESIAN_POINT('',(0.001,-0.011,0.0145));
#733=CARTESIAN_POINT('',(0.001,-0.011,0.019));
#734=CARTESIAN_POINT('',(0.001,-0.011,0.019));
#735=CARTESIAN_POINT('',(-0.006,-0.011,0.019));
#736=CARTESIAN_POINT('',(-0.006,0.021,0.019));
#737=CARTESIAN_POINT('',(-0.006,0.0191,0.019));
#738=CARTESIAN_POINT('',(-0.006,-0.003,0.019));
#739=CARTESIAN_POINT('',(-0.006,-0.0049,0.019));
#740=CARTESIAN_POINT('',(-0.006,0.029,0.019));
#741=CARTESIAN_POINT('',(-0.006,-0.011,0.019));
#742=CARTESIAN_POINT('',(0.003,-0.011,0.014));
#743=CARTESIAN_POINT('',(0.003,0.029,0.014));
#744=CARTESIAN_POINT('',(0.003,0.029,0.021));
#745=CARTESIAN_POINT('',(0.003,-0.011,0.021));
#746=CARTESIAN_POINT('',(0.003,-0.011,0.021));
#747=CARTESIAN_POINT('',(0.003,-0.011,0.014));
#748=CARTESIAN_POINT('',(-0.006,-0.011,0.014));
#749=CARTESIAN_POINT('',(-0.001,-0.011,0.025));
#750=CARTESIAN_POINT('',(-0.015,-0.011,0.021));
#751=CARTESIAN_POINT('',(-0.023002,-0.011,0.002));
#752=CARTESIAN_POINT('',(-0.006,0.029,0.014));
#753=CARTESIAN_POINT('',(0.002,0.029,0.022));
#754=CARTESIAN_POINT('',(-0.014,0.029,0.022));
#755=CARTESIAN_POINT('',(-0.006,-0.003,0.015));
#756=CARTESIAN_POINT('',(-0.006,0.021,0.015));
#757=CARTESIAN_POINT('',(-0.023002,-0.007,0.001));
#758=CARTESIAN_POINT('',(-0.001,-0.011,0.025));
#759=CARTESIAN_POINT('',(-0.015,-0.011,0.021));
#760=MECHANICAL_DESIGN_GEOMETRIC_PRESENTATION_REPRESENTATION('',(#471),
#761);
#761=(
GEOMETRIC_REPRESENTATION_CONTEXT(3)
GLOBAL_UNCERTAINTY_ASSIGNED_CONTEXT((#762))
GLOBAL_UNIT_ASSIGNED_CONTEXT((#765,#764,#763))
REPRESENTATION_CONTEXT('Part 1','TOP_LEVEL_ASSEMBLY_PART')
);
#762=UNCERTAINTY_MEASURE_WITH_UNIT(LENGTH_MEASURE(1.E-8),#765,
'DISTANCE_ACCURACY_VALUE','Maximum Tolerance applied to model');
#763=(
NAMED_UNIT(*)
SI_UNIT($,.STERADIAN.)
SOLID_ANGLE_UNIT()
);
#764=(
NAMED_UNIT(*)
PLANE_ANGLE_UNIT()
SI_UNIT($,.RADIAN.)
);
#765=(
LENGTH_UNIT()
NAMED_UNIT(*)
SI_UNIT($,.METRE.)
);
#766=PRODUCT_DEFINITION_SHAPE('','',#767);
#767=PRODUCT_DEFINITION('','',#769,#768);
#768=PRODUCT_DEFINITION_CONTEXT('',#775,'design');
#769=PRODUCT_DEFINITION_FORMATION_WITH_SPECIFIED_SOURCE('','',#771,
 .NOT_KNOWN.);
#770=PRODUCT_RELATED_PRODUCT_CATEGORY('','',(#771));
#771=PRODUCT('Part 1','Part 1','Part 1',(#773));
#772=PRODUCT_CATEGORY('','');
#773=PRODUCT_CONTEXT('',#775,'mechanical');
#774=APPLICATION_PROTOCOL_DEFINITION('international standard',
'ap242_managed_model_based_3d_engineering',2020,#775);
#775=APPLICATION_CONTEXT('managed model based 3d engineering');
ENDSEC;
END-ISO-10303-21;
